<svg width="45" height="45" viewBox="0 0 45 45" fill="none" xmlns="http://www.w3.org/2000/svg">
<rect x="0.5" y="0.5" width="44" height="44" rx="22" stroke="#D9D9D8"/>
<g clip-path="url(#clip0_275_13)">
<path d="M19.3516 27.1949C19.3516 27.2613 19.2774 27.3145 19.1839 27.3145C19.0774 27.3244 19.0032 27.2713 19.0032 27.1949C19.0032 27.1285 19.0774 27.0754 19.171 27.0754C19.2677 27.0654 19.3516 27.1186 19.3516 27.1949ZM18.3484 27.0455C18.3258 27.1119 18.3903 27.1883 18.4871 27.2082C18.571 27.2414 18.6677 27.2082 18.6871 27.1418C18.7065 27.0754 18.6452 26.999 18.5484 26.9691C18.4645 26.9459 18.371 26.9791 18.3484 27.0455ZM19.7742 26.9891C19.6806 27.0123 19.6161 27.0754 19.6258 27.1518C19.6355 27.2182 19.7194 27.2613 19.8161 27.2381C19.9097 27.2148 19.9742 27.1518 19.9645 27.0854C19.9548 27.0223 19.8677 26.9791 19.7742 26.9891ZM21.8968 14.2656C17.4226 14.2656 14 17.7619 14 22.3672C14 26.0494 16.2516 29.2004 19.4677 30.3094C19.8806 30.3857 20.0258 30.1234 20.0258 29.9076C20.0258 29.7018 20.0161 28.5662 20.0161 27.8689C20.0161 27.8689 17.7581 28.367 17.2839 26.8795C17.2839 26.8795 16.9161 25.9133 16.3871 25.6643C16.3871 25.6643 15.6484 25.143 16.4387 25.1529C16.4387 25.1529 17.2419 25.2193 17.6839 26.0096C18.3903 27.2912 19.5742 26.9227 20.0355 26.7035C20.1097 26.1723 20.3194 25.8037 20.5516 25.5846C18.7484 25.3787 16.929 25.1098 16.929 21.9156C16.929 21.0025 17.1742 20.5443 17.6903 19.96C17.6065 19.7441 17.3323 18.8543 17.7742 17.7055C18.4484 17.4896 20 18.602 20 18.602C20.6452 18.416 21.3387 18.3197 22.0258 18.3197C22.7129 18.3197 23.4065 18.416 24.0516 18.602C24.0516 18.602 25.6032 17.4863 26.2774 17.7055C26.7194 18.8576 26.4452 19.7441 26.3613 19.96C26.8774 20.5477 27.1935 21.0059 27.1935 21.9156C27.1935 25.1197 25.2935 25.3754 23.4903 25.5846C23.7871 25.8469 24.0387 26.3449 24.0387 27.1252C24.0387 28.2441 24.029 29.6287 24.029 29.901C24.029 30.1168 24.1774 30.3791 24.5871 30.3027C27.8129 29.2004 30 26.0494 30 22.3672C30 17.7619 26.371 14.2656 21.8968 14.2656ZM17.1355 25.7174C17.0935 25.7506 17.1032 25.827 17.1581 25.89C17.2097 25.9432 17.2839 25.9664 17.3258 25.9232C17.3677 25.89 17.3581 25.8137 17.3032 25.7506C17.2516 25.6975 17.1774 25.6742 17.1355 25.7174ZM16.7871 25.4484C16.7645 25.4916 16.7968 25.5447 16.8613 25.5779C16.9129 25.6111 16.9774 25.6012 17 25.5547C17.0226 25.5115 16.9903 25.4584 16.9258 25.4252C16.8613 25.4053 16.8097 25.4152 16.7871 25.4484ZM17.8323 26.6305C17.7806 26.6736 17.8 26.7732 17.8742 26.8363C17.9484 26.9127 18.0419 26.9227 18.0839 26.8695C18.1258 26.8264 18.1065 26.7268 18.0419 26.6637C17.971 26.5873 17.8742 26.5773 17.8323 26.6305ZM17.4645 26.1424C17.4129 26.1756 17.4129 26.2619 17.4645 26.3383C17.5161 26.4146 17.6032 26.4479 17.6452 26.4146C17.6968 26.3715 17.6968 26.2852 17.6452 26.2088C17.6 26.1324 17.5161 26.0992 17.4645 26.1424Z" fill="#CACACA"/>
</g>
<defs>
<clipPath id="clip0_275_13">
<rect width="16" height="17" fill="white" transform="translate(14 14)"/>
</clipPath>
</defs>
</svg>
