<svg width="45" height="45" viewBox="0 0 45 45" fill="none" xmlns="http://www.w3.org/2000/svg">
<rect width="45" height="45" rx="22.5" fill="#DEAD6F"/>
<path d="M29.9949 16.5001C29.7751 18.8287 28.8128 24.4836 28.3257 27.0914C28.1178 28.1962 27.7138 28.5645 27.3218 28.6002C26.4664 28.6774 25.8189 28.0358 24.9873 27.4894C23.6924 26.6399 22.9558 26.1112 21.7024 25.2796C20.2471 24.3233 21.1916 23.7946 22.0173 22.9333C22.237 22.7076 26.0031 19.2801 26.0744 18.9712C26.0862 18.9296 26.0922 18.7871 26.0031 18.7098C25.914 18.6326 25.7892 18.6623 25.7001 18.6801C25.5695 18.7079 23.4983 20.0761 19.4868 22.7848C18.9007 23.1887 18.368 23.3847 17.8889 23.3728C17.3602 23.361 16.3504 23.0758 15.596 22.8323C14.6753 22.5353 13.9387 22.3749 14.004 21.8641C14.0357 21.5987 14.402 21.3275 15.103 21.0503C19.3957 19.1811 22.2588 17.9475 23.6924 17.3496C27.7851 15.6507 28.6346 15.3537 29.187 15.3418C29.3117 15.3418 29.579 15.3715 29.7572 15.5141C29.8736 15.6163 29.9477 15.7582 29.9651 15.912C29.9973 16.1063 30.0072 16.3036 29.9949 16.5001Z" fill="white"/>
</svg>
