<svg width="45" height="45" viewBox="0 0 45 45" fill="none" xmlns="http://www.w3.org/2000/svg">
<rect x="0.5" y="0.5" width="44" height="44" rx="22" stroke="#D9D9D8"/>
<path d="M13.9785 17.0161H16.7221C16.8134 21.6067 18.8376 23.5503 20.4429 23.9477V17.0161H23.0309V20.9732C24.6148 20.8013 26.2738 18.9973 26.8376 17.0161H29.4255C29.2107 18.0416 28.7919 19.0188 28.1852 19.8779C27.5785 20.7369 26.8054 21.4618 25.9033 22.004C26.9074 22.5034 27.7933 23.2067 28.502 24.0765C29.2161 24.9409 29.7315 25.945 30.0268 27.0242H27.1758C26.9181 26.0899 26.3812 25.247 25.6456 24.6134C24.9047 23.9745 23.9973 23.5718 23.0309 23.4483V27.0242H22.7195C17.2376 27.0242 14.1074 23.2658 13.9785 17.0161Z" fill="#CACACA"/>
</svg>
