<svg width="41" height="41" viewBox="0 0 41 41" fill="none" xmlns="http://www.w3.org/2000/svg">
<path d="M38.1727 20.0106L35.575 6.08875C35.5115 5.7494 35.3793 5.42662 35.1865 5.14026C34.9936 4.8539 34.7442 4.61001 34.4537 4.4236C34.1631 4.23719 33.8374 4.11219 33.4967 4.05629C33.1561 4.00039 32.8076 4.01477 32.4726 4.09855L32.4236 4.11279L24.1148 6.56336H16.8849L8.57606 4.1207L8.52701 4.10646C8.1921 4.02268 7.84358 4.0083 7.5029 4.0642C7.16222 4.1201 6.83657 4.2451 6.54599 4.43151C6.2554 4.61792 6.00603 4.86181 5.81319 5.14817C5.62035 5.43453 5.48812 5.75731 5.42465 6.09666L2.82695 20.0106C2.71587 20.5679 2.79833 21.1463 3.06069 21.6503C3.32305 22.1543 3.74959 22.5537 4.26977 22.7823C4.6029 22.9351 4.96482 23.0149 5.33131 23.0165C5.76996 23.0163 6.20051 22.8983 6.57795 22.6748V29.3446C6.57795 31.0229 7.24466 32.6325 8.43141 33.8193C9.61817 35.006 11.2278 35.6727 12.9061 35.6727H28.0936C29.7719 35.6727 31.3815 35.006 32.5682 33.8193C33.755 32.6325 34.4217 31.0229 34.4217 29.3446V22.6763C34.7987 22.8994 35.2287 23.0174 35.6668 23.0181C36.0336 23.017 36.3961 22.9377 36.7299 22.7855C37.2507 22.5567 37.6777 22.1569 37.9401 21.6522C38.2025 21.1475 38.2846 20.5683 38.1727 20.0106ZM5.31233 20.4852L7.9116 6.56336L14.5672 8.52033L5.31233 20.4852ZM28.0936 33.1415H21.7654V31.1339L23.9265 28.9744C24.164 28.7369 24.2974 28.4148 24.2974 28.079C24.2974 27.7431 24.164 27.421 23.9265 27.1836C23.689 26.9461 23.3669 26.8127 23.0311 26.8127C22.6952 26.8127 22.3731 26.9461 22.1356 27.1836L20.4998 28.821L18.864 27.1836C18.6265 26.9461 18.3044 26.8127 17.9686 26.8127C17.6327 26.8127 17.3106 26.9461 17.0731 27.1836C16.8357 27.421 16.7022 27.7431 16.7022 28.079C16.7022 28.4148 16.8357 28.7369 17.0731 28.9744L19.2342 31.1339V33.1415H12.9061C11.8991 33.1415 10.9333 32.7415 10.2213 32.0294C9.50923 31.3174 9.1092 30.3516 9.1092 29.3446V19.7116L17.3231 9.09461H23.675L31.8904 19.7116V29.3446C31.8904 30.3516 31.4904 31.3174 30.7784 32.0294C30.0663 32.7415 29.1006 33.1415 28.0936 33.1415ZM35.6873 20.4852L26.4324 8.52033L33.088 6.56336L35.6873 20.4852ZM16.7029 22.3837C16.7029 22.7591 16.5916 23.1262 16.383 23.4384C16.1744 23.7506 15.8779 23.9939 15.531 24.1376C15.1841 24.2813 14.8024 24.3189 14.4341 24.2456C14.0659 24.1724 13.7276 23.9916 13.4621 23.7261C13.1966 23.4606 13.0158 23.1223 12.9426 22.754C12.8693 22.3858 12.9069 22.0041 13.0506 21.6572C13.1943 21.3103 13.4376 21.0138 13.7498 20.8052C14.062 20.5966 14.429 20.4852 14.8045 20.4852C15.308 20.4852 15.7909 20.6852 16.1469 21.0413C16.5029 21.3973 16.7029 21.8802 16.7029 22.3837ZM28.0936 22.3837C28.0936 22.7591 27.9822 23.1262 27.7736 23.4384C27.565 23.7506 27.2685 23.9939 26.9216 24.1376C26.5747 24.2813 26.193 24.3189 25.8248 24.2456C25.4565 24.1724 25.1182 23.9916 24.8527 23.7261C24.5872 23.4606 24.4064 23.1223 24.3332 22.754C24.2599 22.3858 24.2975 22.0041 24.4412 21.6572C24.5849 21.3103 24.8282 21.0138 25.1404 20.8052C25.4526 20.5966 25.8197 20.4852 26.1951 20.4852C26.6986 20.4852 27.1815 20.6852 27.5375 21.0413C27.8936 21.3973 28.0936 21.8802 28.0936 22.3837Z" fill="#DEAD6F"/>
</svg>
