<svg width="41" height="41" viewBox="0 0 41 41" fill="none" xmlns="http://www.w3.org/2000/svg">
<g clip-path="url(#clip0_1_450)">
<path d="M28 11.1103C28 11.4811 27.8901 11.8436 27.6841 12.152C27.478 12.4603 27.1852 12.7007 26.8426 12.8426C26.5 12.9845 26.123 13.0216 25.7593 12.9493C25.3955 12.8769 25.0614 12.6983 24.7992 12.4361C24.537 12.1739 24.3584 11.8398 24.2861 11.4761C24.2137 11.1124 24.2509 10.7354 24.3928 10.3928C24.5347 10.0501 24.775 9.75731 25.0834 9.55129C25.3917 9.34526 25.7542 9.23529 26.125 9.23529C26.6223 9.23529 27.0992 9.43283 27.4509 9.78446C27.8025 10.1361 28 10.613 28 11.1103ZM20.0501 20.7744C19.9242 20.669 19.7788 20.5894 19.6221 20.5403C19.4655 20.4911 19.3007 20.4732 19.1372 20.4878C18.9737 20.5023 18.8146 20.5488 18.6691 20.6248C18.5236 20.7008 18.3945 20.8047 18.2891 20.9306L12.0391 28.4306C11.8269 28.6855 11.7247 29.0142 11.7549 29.3444C11.7851 29.6746 11.9452 29.9794 12.2 30.1915C12.4549 30.4037 12.7836 30.506 13.1138 30.4758C13.4441 30.4456 13.7488 30.2855 13.961 30.0306L20.211 22.5306C20.4218 22.2761 20.5232 21.9484 20.493 21.6193C20.4629 21.2901 20.3036 20.9863 20.0501 20.7744ZM38 12.9853C38.0002 13.1911 37.9495 13.3938 37.8524 13.5754C37.7554 13.7569 37.615 13.9117 37.4438 14.0259L34.25 16.154V19.2353C34.2455 23.5437 32.532 27.6743 29.4855 30.7208C26.439 33.7672 22.3084 35.4807 18 35.4853H1.75005C1.51448 35.4854 1.28367 35.419 1.08421 35.2937C0.884755 35.1684 0.724772 34.9892 0.622703 34.7769C0.520633 34.5646 0.480632 34.3278 0.50731 34.0937C0.533988 33.8597 0.626259 33.6379 0.773488 33.454L15.5 15.0462V12.3603C15.4979 10.1209 16.2975 7.95465 17.7541 6.25366C19.2107 4.55266 21.2281 3.42927 23.4412 3.08676C25.6543 2.74425 27.9169 3.20526 29.8195 4.38636C31.7222 5.56746 33.1392 7.39062 33.8141 9.52592L37.4438 11.9447C37.615 12.0589 37.7554 12.2137 37.8524 12.3952C37.9495 12.5768 38.0002 12.7794 38 12.9853ZM34.4969 12.9853L32.0469 11.3509C31.7914 11.1809 31.6073 10.9229 31.5297 10.6259C31.1095 9.00621 30.113 7.59537 28.727 6.65783C27.341 5.72029 25.6606 5.32042 24.0009 5.53319C22.3411 5.74595 20.816 6.55673 19.7113 7.81356C18.6065 9.07038 17.9981 10.687 18 12.3603V15.4853C18.0003 15.7692 17.9038 16.0447 17.7266 16.2665L4.35005 32.9853H18C21.6455 32.9812 25.1405 31.5312 27.7182 28.9534C30.2959 26.3757 31.7459 22.8807 31.75 19.2353V15.4853C31.7499 15.2794 31.8006 15.0768 31.8977 14.8952C31.9947 14.7137 32.1351 14.5589 32.3063 14.4447L34.4969 12.9853Z" fill="#DEAD6F"/>
</g>
<defs>
<clipPath id="clip0_1_450">
<rect width="40" height="40" fill="white" transform="translate(0.5 0.485291)"/>
</clipPath>
</defs>
</svg>
