<svg width="12" height="12" viewBox="0 0 12 12" fill="none" xmlns="http://www.w3.org/2000/svg">
<path d="M7.28025 10.2803L11.0303 6.53026C11.1 6.46067 11.1553 6.37802 11.193 6.28703C11.2307 6.19604 11.2502 6.09851 11.2502 6.00001C11.2502 5.90151 11.2307 5.80398 11.193 5.71299C11.1553 5.622 11.1 5.53935 11.0303 5.46976L7.28025 1.71976C7.21062 1.65013 7.12795 1.59489 7.03697 1.5572C6.94599 1.51952 6.84848 1.50012 6.75 1.50012C6.65152 1.50012 6.55401 1.51952 6.46303 1.5572C6.37205 1.59489 6.28938 1.65013 6.21975 1.71976C6.07912 1.86039 6.00011 2.05113 6.00011 2.25001C6.00011 2.44889 6.07912 2.63963 6.21975 2.78026L8.6895 5.25001H1.5C1.30109 5.25001 1.11032 5.32903 0.96967 5.46968C0.829018 5.61033 0.75 5.8011 0.75 6.00001C0.75 6.19892 0.829018 6.38969 0.96967 6.53034C1.11032 6.67099 1.30109 6.75001 1.5 6.75001H8.6895L6.21975 9.21976C6.14986 9.28925 6.0944 9.37187 6.05655 9.46287C6.01871 9.55387 5.99922 9.65145 5.99922 9.75001C5.99922 9.84856 6.01871 9.94615 6.05655 10.0371C6.0944 10.1281 6.14986 10.2108 6.21975 10.2803C6.28934 10.35 6.37199 10.4053 6.46298 10.443C6.55397 10.4807 6.6515 10.5002 6.75 10.5002C6.8485 10.5002 6.94603 10.4807 7.03702 10.443C7.12801 10.4053 7.21066 10.35 7.28025 10.2803Z" fill="#41403E"/>
</svg>
