<svg width="15" height="15" viewBox="0 0 15 15" fill="none" xmlns="http://www.w3.org/2000/svg">
<path d="M1.40625 2.04546C0.629883 2.04546 0 2.67534 0 3.45171C0 3.89409 0.208008 4.3101 0.5625 4.57671L6.9375 9.35796C7.27148 9.60698 7.72852 9.60698 8.0625 9.35796L14.4375 4.57671C14.792 4.3101 15 3.89409 15 3.45171C15 2.67534 14.3701 2.04546 13.5938 2.04546H1.40625ZM0 5.32671V11.4205C0 12.4546 0.84082 13.2955 1.875 13.2955H13.125C14.1592 13.2955 15 12.4546 15 11.4205V5.32671L8.625 10.108C7.95703 10.6089 7.04297 10.6089 6.375 10.108L0 5.32671Z" fill="black"/>
</svg>
