<svg width="52" height="49" viewBox="0 0 52 49" fill="none" xmlns="http://www.w3.org/2000/svg">
<path d="M15.6 0.935339L20 5.33534C17.8667 9.06868 16 12.802 14.4 16.5353C12.8 20.1353 11.8667 23.6687 11.6 27.1353L21.6 29.3353V48.7353H3.57628e-07V34.7353C3.57628e-07 26.4687 1.6 19.802 4.8 14.7353C8.13333 9.53534 11.7333 4.93534 15.6 0.935339ZM45.6 0.935339L50 5.33534C47.8667 9.06868 46 12.802 44.4 16.5353C42.8 20.1353 41.8667 23.6687 41.6 27.1353L51.6 29.3353V48.7353H30V34.7353C30 26.4687 31.6 19.802 34.8 14.7353C38.1333 9.53534 41.7333 4.93534 45.6 0.935339Z" fill="#F7EEE4"/>
</svg>
