<svg width="40" height="41" viewBox="0 0 40 41" fill="none" xmlns="http://www.w3.org/2000/svg">
<path d="M35 16.7353H33.6922C33.3781 13.3211 31.7998 10.1473 29.2667 7.83659C26.7337 5.52586 23.4287 4.24487 20 4.24487C16.5713 4.24487 13.2664 5.52586 10.7333 7.83659C8.20025 10.1473 6.62189 13.3211 6.30781 16.7353H5C4.66848 16.7353 4.35054 16.867 4.11612 17.1014C3.8817 17.3358 3.75 17.6538 3.75 17.9853C3.75549 20.958 4.57358 23.8726 6.1158 26.414C7.65801 28.9553 9.86566 31.0267 12.5 32.4041V32.9853C12.5 33.6484 12.7634 34.2842 13.2322 34.7531C13.7011 35.2219 14.337 35.4853 15 35.4853H25C25.663 35.4853 26.2989 35.2219 26.7678 34.7531C27.2366 34.2842 27.5 33.6484 27.5 32.9853V32.4041C30.1343 31.0267 32.342 28.9553 33.8842 26.414C35.4264 23.8726 36.2445 20.958 36.25 17.9853C36.25 17.6538 36.1183 17.3358 35.8839 17.1014C35.6495 16.867 35.3315 16.7353 35 16.7353ZM31.1781 16.7353H23.1437C24.6592 14.4617 26.952 12.8189 29.5922 12.115C30.4554 13.5191 30.997 15.097 31.1781 16.7353ZM27.1062 9.27125C27.3927 9.50562 27.6672 9.75302 27.9297 10.0134C24.6021 11.184 21.8524 13.5897 20.25 16.7322H15.6406C16.4219 14.5422 17.8602 12.6469 19.7591 11.3051C21.658 9.96325 23.9249 9.24042 26.25 9.23531C26.5359 9.23531 26.8219 9.24937 27.1062 9.27125ZM20 6.73531C21.0031 6.73597 22.0015 6.87103 22.9688 7.13687C20.6132 7.7212 18.4533 8.91615 16.7067 10.6013C14.9601 12.2864 13.6886 14.4022 13.0203 16.7353H8.82187C9.13195 13.9867 10.4427 11.4482 12.5042 9.60397C14.5658 7.75971 17.2339 6.7386 20 6.73531ZM25.7281 30.4853C25.5101 30.5855 25.3255 30.7463 25.1964 30.9486C25.0673 31.1508 24.9991 31.386 25 31.6259V32.9853H15V31.6259C15.0009 31.386 14.9327 31.1508 14.8036 30.9486C14.6745 30.7463 14.4899 30.5855 14.2719 30.4853C12.0736 29.4737 10.1801 27.9018 8.78142 25.9271C7.38271 23.9525 6.52802 21.6447 6.30312 19.2353H33.6922C33.4677 21.6442 32.6137 23.9517 31.2159 25.9263C29.8181 27.9008 27.9255 29.4731 25.7281 30.4853Z" fill="#DEAD6F"/>
</svg>
