<svg width="41" height="41" viewBox="0 0 41 41" fill="none" xmlns="http://www.w3.org/2000/svg">
<path d="M15.5 22.6103C15.5 22.9811 15.39 23.3436 15.184 23.652C14.978 23.9603 14.6851 24.2007 14.3425 24.3426C13.9999 24.4845 13.6229 24.5216 13.2592 24.4493C12.8955 24.3769 12.5614 24.1983 12.2992 23.9361C12.037 23.6739 11.8584 23.3398 11.786 22.9761C11.7137 22.6124 11.7508 22.2354 11.8927 21.8928C12.0346 21.5502 12.275 21.2573 12.5833 21.0513C12.8916 20.8453 13.2542 20.7353 13.625 20.7353C14.1223 20.7353 14.5992 20.9328 14.9508 21.2845C15.3025 21.6361 15.5 22.113 15.5 22.6103ZM27.375 20.7353C27.0042 20.7353 26.6416 20.8453 26.3333 21.0513C26.025 21.2573 25.7846 21.5502 25.6427 21.8928C25.5008 22.2354 25.4637 22.6124 25.536 22.9761C25.6084 23.3398 25.787 23.6739 26.0492 23.9361C26.3114 24.1983 26.6455 24.3769 27.0092 24.4493C27.3729 24.5216 27.7499 24.4845 28.0925 24.3426C28.4351 24.2007 28.728 23.9603 28.934 23.652C29.14 23.3436 29.25 22.9811 29.25 22.6103C29.25 22.113 29.0525 21.6361 28.7008 21.2845C28.3492 20.9328 27.8723 20.7353 27.375 20.7353ZM36.75 8.23529V21.9853C36.75 30.2556 29.4609 36.9853 20.5 36.9853C11.5391 36.9853 4.25 30.2556 4.25 21.9853V8.23529C4.25023 7.74101 4.39698 7.25788 4.67169 6.84697C4.94641 6.43606 5.33678 6.11581 5.79345 5.92669C6.25012 5.73756 6.75261 5.68806 7.23741 5.78442C7.72221 5.88079 8.16756 6.11871 8.51719 6.46811C8.53906 6.48998 8.55781 6.51029 8.57656 6.53217L11.2812 9.64154C14.0468 7.90886 17.2443 6.98992 20.5078 6.98992C23.7713 6.98992 26.9688 7.90886 29.7344 9.64154L32.4234 6.53217C32.4422 6.51029 32.4609 6.48998 32.4828 6.46811C32.8324 6.11871 33.2778 5.88079 33.7626 5.78442C34.2474 5.68806 34.7499 5.73756 35.2066 5.92669C35.6632 6.11581 36.0536 6.43606 36.3283 6.84697C36.603 7.25788 36.7498 7.74101 36.75 8.23529ZM34.25 8.23529L30.8813 12.1103C30.6752 12.3487 30.3867 12.5005 30.0735 12.5352C29.7603 12.57 29.4455 12.4852 29.1922 12.2978C28.4296 11.7339 27.6113 11.2496 26.75 10.8525V14.4853C26.75 14.8168 26.6183 15.1348 26.3839 15.3692C26.1495 15.6036 25.8315 15.7353 25.5 15.7353C25.1685 15.7353 24.8505 15.6036 24.6161 15.3692C24.3817 15.1348 24.25 14.8168 24.25 14.4853V9.96185C23.4299 9.75091 22.5937 9.60875 21.75 9.53686V14.4853C21.75 14.8168 21.6183 15.1348 21.3839 15.3692C21.1495 15.6036 20.8315 15.7353 20.5 15.7353C20.1685 15.7353 19.8505 15.6036 19.6161 15.3692C19.3817 15.1348 19.25 14.8168 19.25 14.4853V9.53686C18.4063 9.60875 17.5701 9.75091 16.75 9.96185V14.4853C16.75 14.8168 16.6183 15.1348 16.3839 15.3692C16.1495 15.6036 15.8315 15.7353 15.5 15.7353C15.1685 15.7353 14.8505 15.6036 14.6161 15.3692C14.3817 15.1348 14.25 14.8168 14.25 14.4853V10.8525C13.3887 11.2496 12.5704 11.7339 11.8078 12.2978C11.555 12.4857 11.2406 12.5713 10.9275 12.5374C10.6143 12.5035 10.3255 12.3527 10.1188 12.115L6.75 8.23529V21.9853C6.75 28.4947 12.2516 33.8603 19.25 34.4337V31.2525L17.1156 29.1181C16.9996 29.002 16.9076 28.8641 16.8448 28.7124C16.782 28.5607 16.7498 28.3981 16.7499 28.234C16.7499 28.0698 16.7823 27.9072 16.8452 27.7556C16.9081 27.6039 17.0003 27.4662 17.1164 27.3501C17.351 27.1158 17.669 26.9842 18.0006 26.9844C18.1647 26.9844 18.3273 27.0169 18.4789 27.0797C18.6306 27.1426 18.7683 27.2348 18.8844 27.3509L20.5 28.9665L22.1156 27.3509C22.2317 27.2348 22.3694 27.1426 22.5211 27.0797C22.6727 27.0169 22.8353 26.9844 22.9994 26.9844C23.1636 26.9843 23.3262 27.0166 23.4779 27.0793C23.6296 27.1421 23.7675 27.2341 23.8836 27.3501C23.9997 27.4662 24.0919 27.6039 24.1548 27.7556C24.2177 27.9072 24.2501 28.0698 24.2501 28.234C24.2502 28.3981 24.218 28.5607 24.1552 28.7124C24.0924 28.8641 24.0004 29.002 23.8844 29.1181L21.75 31.2525V34.4337C28.7484 33.8572 34.25 28.4962 34.25 21.9853V8.23529Z" fill="#DEAD6F"/>
</svg>
