<svg width="41" height="41" viewBox="0 0 41 41" fill="none" xmlns="http://www.w3.org/2000/svg">
<g clip-path="url(#clip0_1_458)">
<path d="M26.7596 12.6009C26.7596 12.9718 26.6497 13.3343 26.4436 13.6426C26.2376 13.9509 25.9448 14.1913 25.6022 14.3332C25.2595 14.4751 24.8825 14.5122 24.5188 14.4399C24.1551 14.3675 23.821 14.189 23.5588 13.9267C23.2966 13.6645 23.118 13.3304 23.0456 12.9667C22.9733 12.603 23.0104 12.226 23.1523 11.8834C23.2943 11.5408 23.5346 11.2479 23.8429 11.0419C24.1513 10.8359 24.5138 10.7259 24.8846 10.7259C25.3819 10.7259 25.8588 10.9235 26.2104 11.2751C26.5621 11.6267 26.7596 12.1036 26.7596 12.6009ZM32.9893 25.2572C29.7456 29.3775 24.5752 31.6228 17.6127 31.94L14.1752 39.9743C14.079 40.2007 13.9181 40.3937 13.7127 40.529C13.5073 40.6644 13.2665 40.7361 13.0206 40.7353H12.9409C12.6833 40.7191 12.437 40.6237 12.2359 40.462C12.0347 40.3003 11.8885 40.0803 11.8174 39.8322L9.50337 31.7306L1.4065 29.4118C1.1577 29.342 0.936678 29.1967 0.77385 28.996C0.611021 28.7954 0.514391 28.5491 0.497258 28.2913C0.480125 28.0334 0.543331 27.7766 0.678178 27.5562C0.813024 27.3357 1.01288 27.1625 1.25025 27.0603L9.28618 23.6228C9.59868 16.6587 11.8502 11.4884 15.9721 8.24623C22.7237 2.93373 32.3643 4.67904 34.2284 5.08216C34.698 5.18363 35.1284 5.41827 35.4682 5.75801C35.8079 6.09774 36.0425 6.52817 36.144 6.99779C36.5565 8.86029 38.3034 18.5103 32.9893 25.2665V25.2572ZM25.7502 27.7056C24.3052 27.1552 23.0468 26.2047 22.1221 24.9654C21.1973 23.7261 20.6446 22.2491 20.5284 20.7072C18.9868 20.5912 17.5101 20.0387 16.271 19.1142C15.0319 18.1897 14.0817 16.9316 13.5315 15.4869C12.4377 17.965 11.8502 20.9728 11.7659 24.49C11.76 24.7295 11.6855 24.9622 11.5512 25.1606C11.4168 25.3589 11.2283 25.5145 11.0081 25.6087L5.47524 27.9759L10.8596 29.5181C11.0637 29.5765 11.2495 29.6859 11.3996 29.836C11.5496 29.986 11.659 30.1719 11.7174 30.3759L13.2549 35.7603L15.6268 30.2275C15.7214 30.0065 15.8777 29.8175 16.0769 29.6831C16.2762 29.5487 16.51 29.4746 16.7502 29.4697C20.2627 29.3868 23.2706 28.7962 25.7502 27.7056ZM33.7081 7.52748C32.0362 7.16498 23.3956 5.59154 17.5252 10.2119C16.7853 10.795 16.1129 11.459 15.5206 12.1915C15.4606 13.0083 15.5797 13.8283 15.8695 14.5943C16.1594 15.3603 16.613 16.0537 17.1987 16.6262C17.7844 17.1986 18.488 17.6363 19.2604 17.9085C20.0328 18.1808 20.8554 18.2811 21.6706 18.2025C21.8538 18.1851 22.0386 18.2084 22.2119 18.2707C22.3851 18.333 22.5424 18.4328 22.6725 18.563C22.8027 18.6932 22.9025 18.8505 22.9648 19.0237C23.0271 19.1969 23.0504 19.3817 23.0331 19.565C22.9544 20.3805 23.0547 21.2033 23.3272 21.9759C23.5996 22.7486 24.0376 23.4523 24.6104 24.0381C25.1832 24.6238 25.877 25.0774 26.6434 25.367C27.4097 25.6567 28.2301 25.7754 29.0471 25.715C29.7786 25.1237 30.4416 24.4523 31.0237 23.7134C35.644 17.8431 34.0706 9.20091 33.7081 7.52748Z" fill="#DEAD6F"/>
</g>
<defs>
<clipPath id="clip0_1_458">
<rect width="40" height="40" fill="white" transform="translate(0.5 0.735291)"/>
</clipPath>
</defs>
</svg>
