<svg width="69" height="69" viewBox="0 0 69 69" fill="none" xmlns="http://www.w3.org/2000/svg">
<g filter="url(#filter0_d_1_539)">
<rect x="12.5" y="8.5" width="44" height="44" rx="22" stroke="#D9D9D8"/>
</g>
<g clip-path="url(#clip0_1_539)">
<path d="M31.3516 35.1949C31.3516 35.2613 31.2774 35.3145 31.1839 35.3145C31.0774 35.3244 31.0032 35.2713 31.0032 35.1949C31.0032 35.1285 31.0774 35.0754 31.171 35.0754C31.2677 35.0654 31.3516 35.1186 31.3516 35.1949ZM30.3484 35.0455C30.3258 35.1119 30.3903 35.1883 30.4871 35.2082C30.571 35.2414 30.6677 35.2082 30.6871 35.1418C30.7065 35.0754 30.6452 34.999 30.5484 34.9691C30.4645 34.9459 30.371 34.9791 30.3484 35.0455ZM31.7742 34.9891C31.6806 35.0123 31.6161 35.0754 31.6258 35.1518C31.6355 35.2182 31.7194 35.2613 31.8161 35.2381C31.9097 35.2148 31.9742 35.1518 31.9645 35.0854C31.9548 35.0223 31.8677 34.9791 31.7742 34.9891ZM33.8968 22.2656C29.4226 22.2656 26 25.7619 26 30.3672C26 34.0494 28.2516 37.2004 31.4677 38.3094C31.8806 38.3857 32.0258 38.1234 32.0258 37.9076C32.0258 37.7018 32.0161 36.5662 32.0161 35.8689C32.0161 35.8689 29.7581 36.367 29.2839 34.8795C29.2839 34.8795 28.9161 33.9133 28.3871 33.6643C28.3871 33.6643 27.6484 33.143 28.4387 33.1529C28.4387 33.1529 29.2419 33.2193 29.6839 34.0096C30.3903 35.2912 31.5742 34.9227 32.0355 34.7035C32.1097 34.1723 32.3194 33.8037 32.5516 33.5846C30.7484 33.3787 28.929 33.1098 28.929 29.9156C28.929 29.0025 29.1742 28.5443 29.6903 27.96C29.6065 27.7441 29.3323 26.8543 29.7742 25.7055C30.4484 25.4896 32 26.602 32 26.602C32.6452 26.416 33.3387 26.3197 34.0258 26.3197C34.7129 26.3197 35.4065 26.416 36.0516 26.602C36.0516 26.602 37.6032 25.4863 38.2774 25.7055C38.7194 26.8576 38.4452 27.7441 38.3613 27.96C38.8774 28.5477 39.1935 29.0059 39.1935 29.9156C39.1935 33.1197 37.2935 33.3754 35.4903 33.5846C35.7871 33.8469 36.0387 34.3449 36.0387 35.1252C36.0387 36.2441 36.029 37.6287 36.029 37.901C36.029 38.1168 36.1774 38.3791 36.5871 38.3027C39.8129 37.2004 42 34.0494 42 30.3672C42 25.7619 38.371 22.2656 33.8968 22.2656ZM29.1355 33.7174C29.0935 33.7506 29.1032 33.827 29.1581 33.89C29.2097 33.9432 29.2839 33.9664 29.3258 33.9232C29.3677 33.89 29.3581 33.8137 29.3032 33.7506C29.2516 33.6975 29.1774 33.6742 29.1355 33.7174ZM28.7871 33.4484C28.7645 33.4916 28.7968 33.5447 28.8613 33.5779C28.9129 33.6111 28.9774 33.6012 29 33.5547C29.0226 33.5115 28.9903 33.4584 28.9258 33.4252C28.8613 33.4053 28.8097 33.4152 28.7871 33.4484ZM29.8323 34.6305C29.7806 34.6736 29.8 34.7732 29.8742 34.8363C29.9484 34.9127 30.0419 34.9227 30.0839 34.8695C30.1258 34.8264 30.1065 34.7268 30.0419 34.6637C29.971 34.5873 29.8742 34.5773 29.8323 34.6305ZM29.4645 34.1424C29.4129 34.1756 29.4129 34.2619 29.4645 34.3383C29.5161 34.4146 29.6032 34.4479 29.6452 34.4146C29.6968 34.3715 29.6968 34.2852 29.6452 34.2088C29.6 34.1324 29.5161 34.0992 29.4645 34.1424Z" fill="#CACACA"/>
</g>
<defs>
<filter id="filter0_d_1_539" x="0" y="0" width="69" height="69" filterUnits="userSpaceOnUse" color-interpolation-filters="sRGB">
<feFlood flood-opacity="0" result="BackgroundImageFix"/>
<feColorMatrix in="SourceAlpha" type="matrix" values="0 0 0 0 0 0 0 0 0 0 0 0 0 0 0 0 0 0 127 0" result="hardAlpha"/>
<feOffset dy="4"/>
<feGaussianBlur stdDeviation="6"/>
<feColorMatrix type="matrix" values="0 0 0 0 0 0 0 0 0 0 0 0 0 0 0 0 0 0 0.03 0"/>
<feBlend mode="normal" in2="BackgroundImageFix" result="effect1_dropShadow_1_539"/>
<feBlend mode="normal" in="SourceGraphic" in2="effect1_dropShadow_1_539" result="shape"/>
</filter>
<clipPath id="clip0_1_539">
<rect width="16" height="17" fill="white" transform="translate(26 22)"/>
</clipPath>
</defs>
</svg>
