<svg width="69" height="69" viewBox="0 0 69 69" fill="none" xmlns="http://www.w3.org/2000/svg">
<g filter="url(#filter0_d_1_536)">
<rect x="12.5" y="8.5" width="44" height="44" rx="22" stroke="#D9D9D8"/>
</g>
<path d="M29.2852 25.6953C30.832 24.1484 32.6953 23.375 34.875 23.375C37.0547 23.375 38.9062 24.1484 40.4297 25.6953C41.9766 27.2188 42.75 29.0703 42.75 31.25C42.75 33.4297 41.9766 35.293 40.4297 36.8398C38.9062 38.3633 37.0547 39.125 34.875 39.125C34.0781 39.125 33.3281 39.0195 32.625 38.8086C33.0469 38.0586 33.3164 37.4961 33.4336 37.1211L33.9961 34.9414C34.3477 35.5977 34.9805 35.9258 35.8945 35.9258C37.1602 35.9258 38.1797 35.4219 38.9531 34.4141C39.75 33.4062 40.1484 32.1172 40.1484 30.5469C40.1484 29.3281 39.6797 28.2734 38.7422 27.3828C37.8047 26.4688 36.6094 26.0117 35.1562 26.0117C33.4219 26.0117 32.0508 26.5273 31.043 27.5586C30.0352 28.5664 29.5312 29.6914 29.5312 30.9336C29.5312 32.5039 30.0703 33.5117 31.1484 33.957C31.3594 34.0508 31.5 33.9805 31.5703 33.7461C31.5703 33.6992 31.582 33.5938 31.6055 33.4297C31.6523 33.2656 31.6875 33.1602 31.7109 33.1133C31.7578 32.9727 31.7227 32.832 31.6055 32.6914C31.2539 32.2695 31.0781 31.7539 31.0781 31.1445C31.0781 30.1133 31.4297 29.2344 32.1328 28.5078C32.8594 27.7578 33.7969 27.3828 34.9453 27.3828C35.9766 27.3828 36.7852 27.6641 37.3711 28.2266C37.957 28.7656 38.25 29.4805 38.25 30.3711C38.25 31.543 38.0156 32.5391 37.5469 33.3594C37.0781 34.1562 36.4805 34.5547 35.7539 34.5547C35.332 34.5547 34.9922 34.4141 34.7344 34.1328C34.4766 33.8281 34.3945 33.4648 34.4883 33.043C34.5352 32.8086 34.6172 32.4922 34.7344 32.0938C34.875 31.6953 34.9805 31.3438 35.0508 31.0391C35.1445 30.7344 35.1914 30.4766 35.1914 30.2656C35.1914 29.9375 35.0977 29.6562 34.9102 29.4219C34.7227 29.1875 34.4648 29.0703 34.1367 29.0703C33.7148 29.0703 33.3516 29.2695 33.0469 29.668C32.7656 30.043 32.625 30.5234 32.625 31.1094C32.625 31.3203 32.6484 31.5312 32.6953 31.7422C32.7422 31.9531 32.7891 32.1172 32.8359 32.2344L32.8711 32.375C32.2852 34.8125 31.9453 36.2422 31.8516 36.6641C31.7109 37.2266 31.6641 37.8242 31.7109 38.457C30.3047 37.8242 29.168 36.8633 28.3008 35.5742C27.4336 34.2852 27 32.8438 27 31.25C27 29.0703 27.7617 27.2188 29.2852 25.6953Z" fill="#CACACA"/>
<defs>
<filter id="filter0_d_1_536" x="0" y="0" width="69" height="69" filterUnits="userSpaceOnUse" color-interpolation-filters="sRGB">
<feFlood flood-opacity="0" result="BackgroundImageFix"/>
<feColorMatrix in="SourceAlpha" type="matrix" values="0 0 0 0 0 0 0 0 0 0 0 0 0 0 0 0 0 0 127 0" result="hardAlpha"/>
<feOffset dy="4"/>
<feGaussianBlur stdDeviation="6"/>
<feColorMatrix type="matrix" values="0 0 0 0 0 0 0 0 0 0 0 0 0 0 0 0 0 0 0.03 0"/>
<feBlend mode="normal" in2="BackgroundImageFix" result="effect1_dropShadow_1_536"/>
<feBlend mode="normal" in="SourceGraphic" in2="effect1_dropShadow_1_536" result="shape"/>
</filter>
</defs>
</svg>
