<svg width="45" height="45" viewBox="0 0 45 45" fill="none" xmlns="http://www.w3.org/2000/svg">
<rect x="0.5" y="0.5" width="44" height="44" rx="22" stroke="#D9D9D8"/>
<path d="M17.2852 17.6953C18.832 16.1484 20.6953 15.375 22.875 15.375C25.0547 15.375 26.9062 16.1484 28.4297 17.6953C29.9766 19.2188 30.75 21.0703 30.75 23.25C30.75 25.4297 29.9766 27.293 28.4297 28.8398C26.9062 30.3633 25.0547 31.125 22.875 31.125C22.0781 31.125 21.3281 31.0195 20.625 30.8086C21.0469 30.0586 21.3164 29.4961 21.4336 29.1211L21.9961 26.9414C22.3477 27.5977 22.9805 27.9258 23.8945 27.9258C25.1602 27.9258 26.1797 27.4219 26.9531 26.4141C27.75 25.4062 28.1484 24.1172 28.1484 22.5469C28.1484 21.3281 27.6797 20.2734 26.7422 19.3828C25.8047 18.4688 24.6094 18.0117 23.1562 18.0117C21.4219 18.0117 20.0508 18.5273 19.043 19.5586C18.0352 20.5664 17.5312 21.6914 17.5312 22.9336C17.5312 24.5039 18.0703 25.5117 19.1484 25.957C19.3594 26.0508 19.5 25.9805 19.5703 25.7461C19.5703 25.6992 19.582 25.5938 19.6055 25.4297C19.6523 25.2656 19.6875 25.1602 19.7109 25.1133C19.7578 24.9727 19.7227 24.832 19.6055 24.6914C19.2539 24.2695 19.0781 23.7539 19.0781 23.1445C19.0781 22.1133 19.4297 21.2344 20.1328 20.5078C20.8594 19.7578 21.7969 19.3828 22.9453 19.3828C23.9766 19.3828 24.7852 19.6641 25.3711 20.2266C25.957 20.7656 26.25 21.4805 26.25 22.3711C26.25 23.543 26.0156 24.5391 25.5469 25.3594C25.0781 26.1562 24.4805 26.5547 23.7539 26.5547C23.332 26.5547 22.9922 26.4141 22.7344 26.1328C22.4766 25.8281 22.3945 25.4648 22.4883 25.043C22.5352 24.8086 22.6172 24.4922 22.7344 24.0938C22.875 23.6953 22.9805 23.3438 23.0508 23.0391C23.1445 22.7344 23.1914 22.4766 23.1914 22.2656C23.1914 21.9375 23.0977 21.6562 22.9102 21.4219C22.7227 21.1875 22.4648 21.0703 22.1367 21.0703C21.7148 21.0703 21.3516 21.2695 21.0469 21.668C20.7656 22.043 20.625 22.5234 20.625 23.1094C20.625 23.3203 20.6484 23.5312 20.6953 23.7422C20.7422 23.9531 20.7891 24.1172 20.8359 24.2344L20.8711 24.375C20.2852 26.8125 19.9453 28.2422 19.8516 28.6641C19.7109 29.2266 19.6641 29.8242 19.7109 30.457C18.3047 29.8242 17.168 28.8633 16.3008 27.5742C15.4336 26.2852 15 24.8438 15 23.25C15 21.0703 15.7617 19.2188 17.2852 17.6953Z" fill="#CACACA"/>
</svg>
