<svg width="45" height="45" viewBox="0 0 45 45" fill="none" xmlns="http://www.w3.org/2000/svg">
<rect x="0.5" y="0.5" width="44" height="44" rx="22" stroke="#D9D9D8"/>
<path d="M31.8945 19.4883C31.9648 20.7539 32 22.0078 32 23.25C32 24.4922 31.9648 25.7461 31.8945 27.0117C31.8945 27.8086 31.6367 28.4883 31.1211 29.0508C30.6289 29.5898 30.0195 29.8594 29.293 29.8594C27.4883 29.9531 25.3906 30 23 30C20.6094 30 18.5117 29.9531 16.707 29.8594C15.9805 29.8594 15.3594 29.5898 14.8438 29.0508C14.3516 28.4883 14.1055 27.8086 14.1055 27.0117C14.0352 25.7461 14 24.4922 14 23.25C14 22.4297 14.0469 21.1758 14.1406 19.4883C14.1406 18.6914 14.3867 18.0234 14.8789 17.4844C15.3711 16.9219 15.9805 16.6406 16.707 16.6406C18.418 16.5469 20.4102 16.5 22.6836 16.5H23H23.3164C25.5898 16.5 27.582 16.5469 29.293 16.6406C30.0195 16.6406 30.6289 16.9219 31.1211 17.4844C31.6367 18.0234 31.8945 18.6914 31.8945 19.4883ZM21.2773 26.6953L26.375 23.25L21.2773 19.7695V26.6953Z" fill="#CACACA"/>
</svg>
