<svg width="15" height="15" viewBox="0 0 15 15" fill="none" xmlns="http://www.w3.org/2000/svg">
<g clip-path="url(#clip0_1_496)">
<path d="M4.83105 0.720704C4.60547 0.175782 4.01074 -0.114257 3.44238 0.0410163L0.864258 0.744141C0.354492 0.884766 0 1.34766 0 1.875C0 9.12305 5.87695 15 13.125 15C13.6523 15 14.1152 14.6455 14.2559 14.1357L14.959 11.5576C15.1143 10.9893 14.8242 10.3945 14.2793 10.1689L11.4668 8.99707C10.9893 8.79785 10.4355 8.93555 10.1104 9.33692L8.92676 10.7812C6.86426 9.80566 5.19434 8.13574 4.21875 6.07324L5.66309 4.89258C6.06445 4.56445 6.20215 4.01367 6.00293 3.53613L4.83105 0.723633V0.720704Z" fill="black"/>
</g>
<defs>
<clipPath id="clip0_1_496">
<rect width="15" height="15" fill="white"/>
</clipPath>
</defs>
</svg>
