<svg width="242" height="242" viewBox="0 0 242 242" fill="none" xmlns="http://www.w3.org/2000/svg">
<path d="M112.833 62.1822C125.33 70.5955 136.409 56.586 134.651 42.9357C134.027 38.228 132.25 33.9174 129.263 30.6277C124.385 25.2205 114.213 24.6533 110.508 30.363C104.495 39.5514 102.038 54.9033 112.833 62.1822ZM78.4616 50.9708C91.7905 57.8527 101.603 42.5008 98.5589 29.0207C97.5191 24.4075 95.326 20.286 92.0363 17.3555C86.648 12.5155 76.4386 13.1772 73.2245 19.3407C68.0253 29.2475 67.0044 44.9775 78.4616 50.9708ZM19.8144 48.9289C13.8778 45.1855 4.48142 49.6474 2.11814 56.5293C0.681266 60.7075 0.775797 65.3585 2.15595 69.9149C6.25861 83.1303 22.6503 91.5814 30.988 78.9899C38.1724 68.2133 29.381 55.0168 19.8144 48.9289ZM57.8349 55.6407C65.6999 45.8661 58.3264 31.7999 49.5917 24.6155C44.1656 20.1914 34.6936 23.4055 31.8388 29.9093C30.0994 33.8229 29.8347 38.4549 30.78 43.1058C33.597 56.6049 48.741 67.0033 57.8349 55.6407ZM114.591 87.8569C110.394 74.3389 95.1936 68.478 84.5683 67.1357C68.7249 65.1505 51.5013 73.5827 43.693 90.2202C40.5545 96.913 36.1116 108.711 40.3277 116.254C46.1508 126.596 60.7842 119.979 67.8174 116.235C76.155 111.717 82.7911 107.727 92.3766 109.259L93.3975 109.429C105.516 110.998 120.585 107.066 114.591 87.8569ZM128.015 164.597C121.738 161.932 113.646 168.095 112.606 175.298C111.982 179.666 112.909 184.26 115.026 188.495C121.171 200.803 138.186 206.248 143.858 192.276C148.736 180.214 138.111 168.851 128.015 164.597ZM166.092 163.784C172.255 152.422 162.632 139.944 152.782 134.612C146.694 131.303 137.846 136.446 136.05 143.479C134.972 147.733 135.464 152.384 137.184 156.789C142.176 169.664 158.889 176.943 166.092 163.784ZM239.978 136.862C238.56 132.306 236.064 128.411 232.548 125.726C226.743 121.34 216.458 122.89 213.622 129.318C209.085 139.698 209.142 155.56 221.147 160.495C235.081 166.28 243.967 150.096 239.978 136.862ZM185.811 156.127C199.688 160.476 206.457 143.385 201.239 130.604C199.443 126.218 196.626 122.512 192.996 120.224C187.002 116.443 177.341 119.052 175.318 125.764C172.104 136.616 173.825 152.403 185.811 156.127ZM216.836 176.905C201.088 167.471 182.068 170.118 170.043 180.592C161.971 187.644 152.65 200.973 156.715 214.548C162.481 233.832 177.171 228.671 186.322 220.598L187.097 219.879C194.187 213.281 201.919 212.865 211.354 211.976C219.275 211.163 235.138 208.46 234.155 196.643C233.474 188.003 223.17 180.706 216.836 176.905Z" fill="#F7EEE4"/>
</svg>
